<svg id="visual" viewBox="0 0 1920 1080" width="1920" height="1080" xmlns="http://www.w3.org/2000/svg" xmlns:xlink="http://www.w3.org/1999/xlink" version="1.1"><rect width="1920" height="1080" fill="#000000"></rect><g><g transform="translate(757 27)"><path d="M0 -185.4L144.9 -115.6L180.7 41.2L80.4 167L-80.4 167L-180.7 41.2L-144.9 -115.6Z" fill="#21a603"></path></g><g transform="translate(1254 372)"><path d="M0 -148L115.7 -92.3L144.3 32.9L64.2 133.3L-64.2 133.3L-144.3 32.9L-115.7 -92.3Z" fill="#21a603"></path></g><g transform="translate(81 861)"><path d="M0 -159L124.3 -99.1L155 35.4L69 143.3L-69 143.3L-155 35.4L-124.3 -99.1Z" fill="#21a603"></path></g><g transform="translate(952 632)"><path d="M0 -118L92.3 -73.6L115 26.3L51.2 106.3L-51.2 106.3L-115 26.3L-92.3 -73.6Z" fill="#21a603"></path></g><g transform="translate(1686 20)"><path d="M0 -117L91.5 -72.9L114.1 26L50.8 105.4L-50.8 105.4L-114.1 26L-91.5 -72.9Z" fill="#21a603"></path></g><g transform="translate(1846 1019)"><path d="M0 -124L96.9 -77.3L120.9 27.6L53.8 111.7L-53.8 111.7L-120.9 27.6L-96.9 -77.3Z" fill="#21a603"></path></g><g transform="translate(523 654)"><path d="M0 -117L91.5 -72.9L114.1 26L50.8 105.4L-50.8 105.4L-114.1 26L-91.5 -72.9Z" fill="#21a603"></path></g><g transform="translate(1696 659)"><path d="M0 -171L133.7 -106.6L166.7 38.1L74.2 154.1L-74.2 154.1L-166.7 38.1L-133.7 -106.6Z" fill="#21a603"></path></g><g transform="translate(25 366)"><path d="M0 -140L109.5 -87.3L136.5 31.2L60.7 126.1L-60.7 126.1L-136.5 31.2L-109.5 -87.3Z" fill="#21a603"></path></g><g transform="translate(1266 867)"><path d="M0 -127L99.3 -79.2L123.8 28.3L55.1 114.4L-55.1 114.4L-123.8 28.3L-99.3 -79.2Z" fill="#21a603"></path></g><g transform="translate(834 1008)"><path d="M0 -170L132.9 -106L165.7 37.8L73.8 153.2L-73.8 153.2L-165.7 37.8L-132.9 -106Z" fill="#21a603"></path></g><g transform="translate(486 280)"><path d="M0 -150L117.3 -93.5L146.2 33.4L65.1 135.1L-65.1 135.1L-146.2 33.4L-117.3 -93.5Z" fill="#21a603"></path></g><g transform="translate(403 1045)"><path d="M0 -148L115.7 -92.3L144.3 32.9L64.2 133.3L-64.2 133.3L-144.3 32.9L-115.7 -92.3Z" fill="#21a603"></path></g><g transform="translate(141 14)"><path d="M0 -182L142.3 -113.5L177.4 40.5L79 164L-79 164L-177.4 40.5L-142.3 -113.5Z" fill="#21a603"></path></g><g transform="translate(1179 5)"><path d="M0 -141L110.2 -87.9L137.5 31.4L61.2 127L-61.2 127L-137.5 31.4L-110.2 -87.9Z" fill="#21a603"></path></g><g transform="translate(1900 329)"><path d="M0 -166L129.8 -103.5L161.8 36.9L72 149.6L-72 149.6L-161.8 36.9L-129.8 -103.5Z" fill="#21a603"></path></g></g></svg>